<mxfile host="Electron" modified="2025-04-27T20:04:49.407Z" agent="Mozilla/5.0 (Windows NT 10.0; Win64; x64) AppleWebKit/537.36 (KHTML, like Gecko) draw.io/24.4.13 Chrome/124.0.6367.207 Electron/30.0.6 Safari/537.36" etag="mZOCq6JJIqop7_JqfGaW" version="24.4.13" type="device">
  <diagram name="Page-1" id="2mGR1dL5KJwdp7cE1taz">
    <mxGraphModel dx="1430" dy="825" grid="1" gridSize="10" guides="1" tooltips="1" connect="1" arrows="1" fold="1" page="1" pageScale="1" pageWidth="827" pageHeight="1169" math="0" shadow="0">
      <root>
        <mxCell id="0" />
        <mxCell id="1" parent="0" />
        <mxCell id="SNBZn13yTI7mhXELNsb_-5" style="edgeStyle=orthogonalEdgeStyle;rounded=0;orthogonalLoop=1;jettySize=auto;html=1;exitX=0.5;exitY=1;exitDx=0;exitDy=0;entryX=0.5;entryY=0;entryDx=0;entryDy=0;" edge="1" parent="1" source="SNBZn13yTI7mhXELNsb_-1" target="SNBZn13yTI7mhXELNsb_-4">
          <mxGeometry relative="1" as="geometry" />
        </mxCell>
        <mxCell id="SNBZn13yTI7mhXELNsb_-1" value="Start" style="ellipse;whiteSpace=wrap;html=1;" vertex="1" parent="1">
          <mxGeometry x="325" y="190" width="120" height="80" as="geometry" />
        </mxCell>
        <mxCell id="SNBZn13yTI7mhXELNsb_-2" value="Not Hazardous" style="ellipse;whiteSpace=wrap;html=1;fillColor=#008a00;fontColor=#ffffff;strokeColor=#005700;" vertex="1" parent="1">
          <mxGeometry x="60" y="540" width="120" height="80" as="geometry" />
        </mxCell>
        <mxCell id="SNBZn13yTI7mhXELNsb_-3" value="Hazardous" style="ellipse;whiteSpace=wrap;html=1;fillColor=#a20025;fontColor=#ffffff;strokeColor=#6F0000;" vertex="1" parent="1">
          <mxGeometry x="821" y="610" width="120" height="80" as="geometry" />
        </mxCell>
        <mxCell id="SNBZn13yTI7mhXELNsb_-6" style="edgeStyle=orthogonalEdgeStyle;rounded=0;orthogonalLoop=1;jettySize=auto;html=1;exitX=0;exitY=0.5;exitDx=0;exitDy=0;" edge="1" parent="1" source="SNBZn13yTI7mhXELNsb_-4" target="SNBZn13yTI7mhXELNsb_-2">
          <mxGeometry relative="1" as="geometry" />
        </mxCell>
        <mxCell id="SNBZn13yTI7mhXELNsb_-7" value="False" style="edgeLabel;html=1;align=center;verticalAlign=middle;resizable=0;points=[];" vertex="1" connectable="0" parent="SNBZn13yTI7mhXELNsb_-6">
          <mxGeometry x="0.0998" y="-1" relative="1" as="geometry">
            <mxPoint as="offset" />
          </mxGeometry>
        </mxCell>
        <mxCell id="SNBZn13yTI7mhXELNsb_-9" style="edgeStyle=orthogonalEdgeStyle;rounded=0;orthogonalLoop=1;jettySize=auto;html=1;exitX=1;exitY=0.5;exitDx=0;exitDy=0;entryX=0.5;entryY=0;entryDx=0;entryDy=0;" edge="1" parent="1" source="SNBZn13yTI7mhXELNsb_-4" target="SNBZn13yTI7mhXELNsb_-8">
          <mxGeometry relative="1" as="geometry" />
        </mxCell>
        <mxCell id="SNBZn13yTI7mhXELNsb_-11" value="True" style="edgeLabel;html=1;align=center;verticalAlign=middle;resizable=0;points=[];" vertex="1" connectable="0" parent="SNBZn13yTI7mhXELNsb_-9">
          <mxGeometry x="0.2342" relative="1" as="geometry">
            <mxPoint as="offset" />
          </mxGeometry>
        </mxCell>
        <mxCell id="SNBZn13yTI7mhXELNsb_-4" value="max diameter &amp;gt; 237m ?" style="rhombus;whiteSpace=wrap;html=1;" vertex="1" parent="1">
          <mxGeometry x="180" y="360" width="410" height="80" as="geometry" />
        </mxCell>
        <mxCell id="SNBZn13yTI7mhXELNsb_-10" style="edgeStyle=orthogonalEdgeStyle;rounded=0;orthogonalLoop=1;jettySize=auto;html=1;exitX=1;exitY=0.5;exitDx=0;exitDy=0;entryX=0.5;entryY=0;entryDx=0;entryDy=0;" edge="1" parent="1" source="SNBZn13yTI7mhXELNsb_-8" target="SNBZn13yTI7mhXELNsb_-3">
          <mxGeometry relative="1" as="geometry" />
        </mxCell>
        <mxCell id="SNBZn13yTI7mhXELNsb_-14" value="True" style="edgeLabel;html=1;align=center;verticalAlign=middle;resizable=0;points=[];" vertex="1" connectable="0" parent="SNBZn13yTI7mhXELNsb_-10">
          <mxGeometry x="0.2799" y="-1" relative="1" as="geometry">
            <mxPoint as="offset" />
          </mxGeometry>
        </mxCell>
        <mxCell id="SNBZn13yTI7mhXELNsb_-12" style="edgeStyle=orthogonalEdgeStyle;rounded=0;orthogonalLoop=1;jettySize=auto;html=1;exitX=0;exitY=0.5;exitDx=0;exitDy=0;entryX=1;entryY=0.5;entryDx=0;entryDy=0;" edge="1" parent="1" source="SNBZn13yTI7mhXELNsb_-8" target="SNBZn13yTI7mhXELNsb_-2">
          <mxGeometry relative="1" as="geometry" />
        </mxCell>
        <mxCell id="SNBZn13yTI7mhXELNsb_-13" value="False" style="edgeLabel;html=1;align=center;verticalAlign=middle;resizable=0;points=[];" vertex="1" connectable="0" parent="SNBZn13yTI7mhXELNsb_-12">
          <mxGeometry x="0.0365" relative="1" as="geometry">
            <mxPoint y="-6" as="offset" />
          </mxGeometry>
        </mxCell>
        <mxCell id="SNBZn13yTI7mhXELNsb_-8" value="relative velocity &amp;gt; 21 300 km/h ?" style="rhombus;whiteSpace=wrap;html=1;" vertex="1" parent="1">
          <mxGeometry x="411" y="460" width="410" height="80" as="geometry" />
        </mxCell>
      </root>
    </mxGraphModel>
  </diagram>
</mxfile>
